<?xml version="1.0" encoding="UTF-8"?>
<svg id="Capa_1" data-name="Capa 1" xmlns="http://www.w3.org/2000/svg" viewBox="0 0 137.54 135.28">
  <defs>
    <style>
      .cls-1 {
        stroke: #633188;
      }

      .cls-1, .cls-2 {
        fill: #633188;
      }

      .cls-1, .cls-3 {
        stroke-miterlimit: 10;
      }

      .cls-4 {
        fill: #ea5b27;
      }

      .cls-5 {
        fill: #c0282e;
      }

      .cls-3 {
        fill: #fff;
        stroke: #fff;
      }
    </style>
  </defs>
  <path class="cls-1" d="m136.64,74.07c-.56,5.25-1.58,9.11-2.57,12.83-.91,3.43-1.84,6.27-2.57,8.34-1.18,3.35-3.48,7.26-6.42,7.32-2.28.05-4.04-2.16-4.49-2.83-1.39-2.04-1.29-3.73-1.92-8.98-.3-2.42-.62-4.64-.96-6.63-.47-1.98-1.88-6.62-6.1-10.69-3.61-3.48-7.63-4.95-10.34-5.58-1.64-.38-3.35-.38-4.99,0-2.7.63-6.72,2.1-10.34,5.58-4.22,4.07-5.62,8.71-6.1,10.69-.34,2-.67,4.22-.96,6.63-.64,5.25-.54,6.94-1.92,8.98-.46.67-2.21,2.88-4.49,2.83-2.93-.06-5.24-3.97-6.42-7.32-.72-2.07-1.66-4.91-2.57-8.34-.99-3.72-2-7.58-2.57-12.83-.46-4.31-.6-9.28,0-14.76.17-1.56.38-3.06.64-4.49.3-1.28,1.49-5.71,5.77-8.98,3.7-2.82,7.57-3.16,8.98-3.21,1.42.01,4.88.24,8.34,2.57,2.6,1.75,4.04,3.91,4.73,5.13h18.77c.69-1.22,2.12-3.38,4.73-5.13,3.46-2.32,6.92-2.55,8.34-2.57,1.41.05,5.28.38,8.98,3.21,4.28,3.27,5.48,7.71,5.77,8.98.26,1.43.47,2.93.64,4.49.6,5.47.46,10.45,0,14.76Z"/>
  <circle class="cls-3" cx="76.33" cy="57.39" r="10.27"/>
  <circle class="cls-3" cx="122.52" cy="50.33" r="3.21"/>
  <circle class="cls-3" cx="122.52" cy="64.45" r="3.21"/>
  <circle class="cls-3" cx="114.83" cy="57.39" r="3.21"/>
  <circle class="cls-3" cx="130.22" cy="57.39" r="3.21"/>
  <path class="cls-3" d="m98.14,59.05v2.72c0,.34.37.54.65.35l2.05-1.36c.25-.17.25-.53,0-.7l-2.05-1.36c-.28-.19-.65.01-.65.35Z"/>
  <rect class="cls-2" x="74.88" y="51.3" width="2.65" height="11.55"/>
  <rect class="cls-2" x="74.87" y="51.42" width="2.65" height="11.32" transform="translate(133.28 -19.12) rotate(90)"/>
  <path class="cls-2" d="m2.87,64.13c1.12,9.1.64,13.47,8.98,29.51,1.05,2.01,17.78,22.02,44.38,25.27.33.04.94.08,1.71.13,15.66.94,27.62-3.84,32.02-5.95,12.35-5.9,17.71-13.77,21.87-18.87-.11,1.81,1.99,3.58,2.36,4.38.41.89,1.02.01,1.49,1.32.3.86.32,1.14.67,1.89.43.92,1.66,1.05,2,1.45.01.01.02.02.03.04,2.89,3.34,2.44,8.41-1.09,11.06-18.2,13.65-33.47,18.71-45.14,20.34-.33.05-.67.09-1.18.16-6.04.74-31.33,2.74-50.74-17.48-1.72-1.79-10.06-9.83-15.43-23.34C-2.13,76.54.29,61.34.94,57.71c1.35-7.47,3.8-13.36,5.77-17.32"/>
  <path class="cls-4" d="m124.07,108.72c1.28.64-20.39,22.58-48.06,25.99-2.46.3-31.99,3.55-54.53-18.61C1.85,96.81-3.98,68.09,6.72,40.39c0,5.13-8.18,30.07,8.8,53.9,1.34,1.88,15.63,22.31,43.81,25.56.63.07,1.12.1,1.84.13,28.71,1.26,43.46-12.74,50.52-25.57.6-1.09,1.23.99,2.12,2.53.78,1.36,1.53,2.09,3.25,4.4,3.02,4.06,5.32,6.54,6.99,7.38Z"/>
  <path class="cls-5" d="m32.16,101.85s-12.54-11.18-13.61-30.57c-.2-3.65-.92-20.2,10.94-35.06,2.53-3.16,9.89-11.61,22.46-16.04,21.52-7.59,40.95,2.72,45.96,5.7,1.03.61,2.14,1.09,3.32,1.28,3.29.54,6.6-.67,8.46-3.14,2.83-3.73,2.07-9.01-2.43-12.09-7.26-4.31-13.97-7.35-18.69-8.75-11.15-3.31-26.03-5.23-41,.3-4.37,1.62-19.11,7.37-29.1,23.04-13.82,21.69-7.2,44.63-6.31,47.53,4.96,16.17,15.67,24.42,19.99,27.78Z"/>
</svg>