<?xml version="1.0" encoding="UTF-8"?>
<svg id="Capa_1" data-name="Capa 1" xmlns="http://www.w3.org/2000/svg" viewBox="0 0 313.23 145.38">
  <defs>
    <style>
      .cls-1 {
        font-family: PoorRichard-Regular, 'Poor Richard';
        font-size: 60.43px;
      }

      .cls-1, .cls-2, .cls-3 {
        fill: #fff;
      }

      .cls-1, .cls-4, .cls-5, .cls-3, .cls-6, .cls-7 {
        stroke-miterlimit: 10;
      }

      .cls-1, .cls-3, .cls-6 {
        stroke: #fff;
      }

      .cls-4, .cls-5 {
        stroke: #000;
      }

      .cls-4, .cls-6 {
        stroke-width: .25px;
      }

      .cls-6 {
        fill: none;
      }

      .cls-7 {
        stroke: #1d1d1b;
      }
    </style>
  </defs>
  <g>
    <path class="cls-2" d="m127.53,73.7l-.61-5.3h-.26c-2.35,3.3-6.87,6.26-12.87,6.26-8.52,0-12.87-6-12.87-12.09,0-10.17,9.04-15.74,25.3-15.65v-.87c0-3.48-.96-9.74-9.56-9.74-3.91,0-8,1.22-10.96,3.13l-1.74-5.04c3.48-2.26,8.52-3.74,13.82-3.74,12.87,0,16,8.78,16,17.22v15.74c0,3.65.17,7.22.7,10.09h-6.96Zm-1.13-21.48c-8.35-.17-17.82,1.3-17.82,9.48,0,4.96,3.3,7.3,7.22,7.3,5.48,0,8.96-3.48,10.17-7.04.26-.78.43-1.65.43-2.43v-7.3Z"/>
    <path class="cls-2" d="m142.22,43c0-4.35-.09-7.91-.35-11.39h6.69l.35,6.78h.26c2.35-4,6.26-7.74,13.22-7.74,5.74,0,10.09,3.48,11.91,8.43h.17c1.3-2.35,2.96-4.17,4.7-5.48,2.52-1.91,5.3-2.96,9.3-2.96,5.56,0,13.82,3.65,13.82,18.26v24.78h-7.48v-23.82c0-8.09-2.96-12.96-9.13-12.96-4.35,0-7.74,3.22-9.04,6.96-.35,1.04-.61,2.43-.61,3.83v26h-7.48v-25.21c0-6.69-2.96-11.56-8.78-11.56-4.78,0-8.26,3.83-9.48,7.65-.43,1.13-.61,2.43-.61,3.74v25.39h-7.48v-30.69Z"/>
    <path class="cls-2" d="m210.39,73.7V31.61h7.65v42.08h-7.65Z"/>
    <path class="cls-2" d="m225.95,43c0-4.35-.09-7.91-.35-11.39h6.78l.43,6.96h.17c2.09-4,6.96-7.91,13.91-7.91,5.83,0,14.87,3.48,14.87,17.91v25.13h-7.65v-24.26c0-6.78-2.52-12.43-9.74-12.43-5.04,0-8.96,3.56-10.26,7.83-.35.96-.52,2.26-.52,3.57v25.3h-7.65v-30.69Z"/>
    <path class="cls-2" d="m308.73,31.61c-.17,3.04-.35,6.43-.35,11.56v24.43c0,9.65-1.91,15.56-6,19.22-4.09,3.83-10,5.04-15.3,5.04s-10.61-1.22-14-3.48l1.91-5.83c2.78,1.74,7.13,3.3,12.35,3.3,7.83,0,13.56-4.09,13.56-14.69v-4.7h-.17c-2.35,3.91-6.87,7.04-13.39,7.04-10.43,0-17.91-8.87-17.91-20.52,0-14.26,9.3-22.35,18.95-22.35,7.3,0,11.3,3.83,13.13,7.3h.17l.35-6.35h6.69Zm-7.91,16.61c0-1.3-.09-2.43-.43-3.48-1.39-4.43-5.13-8.09-10.69-8.09-7.3,0-12.52,6.17-12.52,15.91,0,8.26,4.17,15.13,12.43,15.13,4.7,0,8.96-2.96,10.61-7.83.43-1.3.61-2.78.61-4.09v-7.56Z"/>
  </g>
  <path class="cls-2" d="m212.21,7.13h3.68c2.22,0,4.03,1.81,4.03,4.03v5.29c0,3.24-2.63,5.87-5.87,5.87h0c-3.24,0-5.87-2.63-5.87-5.87v-5.29c0-2.22,1.81-4.03,4.03-4.03Z"/>
  <rect x="212.74" y="9.74" width="2.61" height="5.22" rx="1.3" ry="1.3" transform="translate(428.1 24.7) rotate(180)"/>
  <rect class="cls-4" x="213.83" y="6.48" width=".43" height="3.91"/>
  <text class="cls-1" transform="translate(100.46 131.84)"><tspan x="0" y="0">Kingdom</tspan></text>
  <path class="cls-3" d="m93.1,50.4c-.38,3.58-1.07,6.2-1.75,8.73-.62,2.34-1.25,4.27-1.75,5.68-.8,2.28-2.37,4.94-4.37,4.98-1.55.03-2.75-1.47-3.06-1.93-.94-1.39-.88-2.54-1.31-6.11-.2-1.65-.42-3.16-.65-4.51-.32-1.34-1.28-4.51-4.15-7.27-2.46-2.37-5.2-3.37-7.03-3.8-1.12-.26-2.28-.26-3.4,0-1.84.43-4.58,1.43-7.03,3.8-2.87,2.77-3.82,5.93-4.15,7.27-.23,1.36-.45,2.87-.65,4.51-.43,3.58-.37,4.72-1.31,6.11-.31.45-1.51,1.96-3.06,1.93-2-.04-3.56-2.7-4.37-4.98-.49-1.41-1.13-3.34-1.75-5.68-.67-2.53-1.36-5.16-1.75-8.73-.31-2.93-.41-6.32,0-10.04.11-1.06.26-2.08.44-3.06.2-.87,1.02-3.89,3.93-6.11,2.52-1.92,5.15-2.15,6.11-2.18.97,0,3.32.17,5.68,1.75,1.77,1.19,2.75,2.66,3.22,3.49h12.77c.47-.83,1.45-2.3,3.22-3.49,2.35-1.58,4.71-1.74,5.68-1.75.96.03,3.59.26,6.11,2.18,2.91,2.23,3.73,5.24,3.93,6.11.17.97.32,2,.44,3.06.41,3.72.31,7.11,0,10.04Z"/>
  <circle class="cls-7" cx="52.06" cy="39.05" r="6.98"/>
  <circle class="cls-5" cx="83.5" cy="34.25" r="2.18"/>
  <circle class="cls-5" cx="83.5" cy="43.85" r="2.18"/>
  <circle class="cls-5" cx="78.26" cy="39.05" r="2.18"/>
  <circle class="cls-5" cx="88.73" cy="39.05" r="2.18"/>
  <path class="cls-5" d="m66.91,40.18v1.85c0,.23.25.36.44.24l1.39-.93c.17-.11.17-.36,0-.48l-1.39-.93c-.19-.13-.44,0-.44.24Z"/>
  <rect class="cls-2" x="51.08" y="34.9" width="1.8" height="7.86"/>
  <rect class="cls-2" x="51.07" y="34.99" width="1.8" height="7.71" transform="translate(90.81 -13.13) rotate(90)"/>
  <path class="cls-6" d="m2.08,43.64c.76,6.19.44,9.17,6.11,20.08.71,1.37,12.1,14.98,30.2,17.19.22.03.64.06,1.16.09,10.65.64,18.9-3.19,21.9-4.62,8.4-4.01,12.82-7.67,15.65-11.14-.07,1.23.48,1.31.73,1.86.28.6.7,0,1.01.9.21.58.22.78.45,1.28.29.63,1.13.71,1.36.99,0,0,.01.02.02.02,1.97,2.27,1.66,5.72-.74,7.52-12.39,9.29-22.77,12.73-30.71,13.84-.22.03-.45.06-.81.11-4.11.5-21.32,1.86-34.52-11.89-1.17-1.22-6.85-6.69-10.5-15.88C-1.33,52.08.32,41.74.77,39.27c.92-5.08,2.58-9.09,3.93-11.79"/>
  <path class="cls-2" d="m85.9,74.66c.87.44-15.23,14.68-34.06,16.99-1.67.21-21.77,2.42-37.11-12.66C1.38,65.87-2.59,46.33,4.7,27.48c0,3.49-5.57,20.46,5.99,36.68.91,1.28,10.63,15.18,29.81,17.39.43.05.76.07,1.25.09,19.53.86,30.32-7.7,35.12-16.43.41-.74.25-.43.85.61.53.92.89,1.56,2.06,3.13,2.06,2.76,4.98,5.14,6.12,5.71Z"/>
  <path class="cls-2" d="m22.07,70.05s-8.6-8.35-9.32-21.54c-.14-2.48-.63-13.74,7.45-23.86,1.72-2.15,6.73-7.9,15.28-10.91,14.65-5.17,27.86,1.85,31.27,3.88.7.42,1.46.74,2.26.87,2.24.37,4.49-.46,5.76-2.13,1.92-2.54,1.31-6.64-1.75-8.73-4.94-2.94-9.41-4.49-12.62-5.45-7.58-2.25-17.71-3.56-27.9.2-2.97,1.1-13.01,5.02-19.8,15.68-9.4,14.76-4.9,30.37-4.29,32.34,3.38,11,10.72,17.36,13.66,19.65Z"/>
</svg>