<?xml version="1.0" encoding="UTF-8"?>
<svg id="Capa_1" data-name="Capa 1" xmlns="http://www.w3.org/2000/svg" viewBox="0 0 133.35 131.15">
  <defs>
    <style>
      .cls-1, .cls-2 {
        fill: #fff;
      }

      .cls-3 {
        stroke: #000;
      }

      .cls-3, .cls-2, .cls-4 {
        stroke-miterlimit: 10;
      }

      .cls-2, .cls-4 {
        stroke: #fff;
      }

      .cls-4 {
        fill: none;
        stroke-width: .25px;
      }
    </style>
  </defs>
  <path class="cls-2" d="m132.46,71.74c-.55,5.09-1.53,8.82-2.49,12.43-.88,3.32-1.78,6.08-2.49,8.08-1.14,3.24-3.37,7.03-6.21,7.09-2.21.05-3.91-2.1-4.35-2.74-1.34-1.98-1.25-3.61-1.86-8.7-.29-2.34-.6-4.49-.93-6.43-.46-1.91-1.82-6.41-5.9-10.35-3.5-3.37-7.39-4.79-10.01-5.41-1.59-.37-3.24-.37-4.83,0-2.62.61-6.51,2.03-10.01,5.41-4.08,3.94-5.44,8.44-5.9,10.35-.33,1.93-.65,4.08-.93,6.43-.62,5.09-.52,6.72-1.86,8.7-.44.65-2.14,2.79-4.35,2.74-2.84-.06-5.07-3.85-6.21-7.09-.7-2-1.6-4.75-2.49-8.08-.96-3.6-1.94-7.34-2.49-12.43-.45-4.17-.58-8.99,0-14.29.16-1.51.37-2.96.62-4.35.29-1.24,1.45-5.53,5.59-8.7,3.59-2.73,7.33-3.06,8.7-3.11,1.38.01,4.73.24,8.08,2.49,2.52,1.7,3.91,3.79,4.58,4.97h18.18c.66-1.18,2.06-3.27,4.58-4.97,3.35-2.25,6.7-2.47,8.08-2.49,1.37.05,5.11.37,8.7,3.11,4.14,3.17,5.31,7.46,5.59,8.7.25,1.39.46,2.84.62,4.35.58,5.3.45,10.12,0,14.29Z"/>
  <circle class="cls-3" cx="74.05" cy="55.58" r="9.94"/>
  <circle class="cls-3" cx="118.79" cy="48.75" r="3.11"/>
  <circle class="cls-3" cx="118.79" cy="62.42" r="3.11"/>
  <circle class="cls-3" cx="111.34" cy="55.58" r="3.11"/>
  <circle class="cls-3" cx="126.25" cy="55.58" r="3.11"/>
  <path class="cls-3" d="m95.18,57.19v2.63c0,.33.36.52.63.34l1.98-1.32c.24-.16.24-.52,0-.68l-1.98-1.32c-.27-.18-.63.01-.63.34Z"/>
  <rect class="cls-1" x="72.65" y="49.68" width="2.56" height="11.18"/>
  <rect class="cls-1" x="72.64" y="49.8" width="2.56" height="10.97" transform="translate(129.21 -18.64) rotate(90)"/>
  <path class="cls-4" d="m2.9,62.11c1.09,8.82.62,13.05,8.7,28.58,1.01,1.95,17.22,21.33,42.98,24.47.32.04.91.08,1.66.12,15.16.91,26.91-4.54,31.17-6.57,11.96-5.71,18.25-10.92,22.28-15.86-.1,1.75.68,1.87,1.04,2.65.4.86.99.01,1.44,1.28.29.83.31,1.1.65,1.83.41.89,1.61,1.02,1.94,1.4,0,.01.02.02.03.04,2.8,3.23,2.37,8.14-1.05,10.71-17.63,13.22-32.41,18.12-43.72,19.7-.32.04-.65.09-1.15.15-5.85.71-30.35,2.65-49.14-16.93-1.66-1.73-9.74-9.52-14.94-22.61C-1.94,74.13.4,59.41,1.04,55.89c1.31-7.23,3.68-12.94,5.59-16.78"/>
  <path class="cls-1" d="m122.22,106.27c1.24.62-21.68,20.89-48.48,24.19-2.38.29-30.98,3.44-52.82-18.02C1.92,93.76-3.73,65.95,6.63,39.12c0,4.97-7.92,29.13,8.53,52.2,1.3,1.82,15.14,21.61,42.44,24.76.61.07,1.08.09,1.78.13,27.81,1.22,43.16-10.96,49.99-23.39.58-1.06.36-.61,1.21.87.75,1.31,1.26,2.22,2.93,4.46,2.93,3.93,7.09,7.32,8.71,8.13Z"/>
  <path class="cls-1" d="m31.36,99.7s-12.23-11.88-13.27-30.67c-.2-3.53-.89-19.56,10.6-33.96,2.45-3.06,9.58-11.24,21.75-15.53,20.85-7.35,39.66,2.64,44.51,5.52,1,.59,2.07,1.05,3.22,1.24,3.19.52,6.39-.65,8.2-3.04,2.74-3.61,1.87-9.45-2.49-12.43-7.03-4.18-13.4-6.39-17.97-7.75-10.8-3.21-25.21-5.07-39.71.29-4.23,1.57-18.51,7.14-28.18,22.32-13.38,21-6.97,43.22-6.11,46.04,4.8,15.66,15.26,24.7,19.45,27.96Z"/>
</svg>